<svg xmlns="http://www.w3.org/2000/svg" viewBox="-97 -41 2630 1112">
  <g transform="translate(0,1030) scale(1,-1)">
  <g fill="#000000">
    <path d="M1 1007 l0 -23 38 0 38 0 0 -87 0 -88 25 0 25 0 0 88 0 87 38 0 37 0
0 23 0 23 -100 0 -101 0 0 -23z"/>
    <path d="M242 961 c-25 -3 -46 -17 -55 -40 -1 -2 -2 -4 -2 -5 1 0 37 -10 38
-10 1 0 2 2 2 3 3 6 9 12 14 14 4 2 7 2 14 2 15 0 23 -5 26 -17 1 -5 1 -13 0
-13 0 0 -4 1 -8 2 -12 3 -35 4 -46 2 -27 -6 -41 -23 -40 -49 2 -28 24 -46 55
-44 16 2 30 8 38 18 2 3 4 5 4 5 1 0 1 -4 1 -10 l0 -10 21 0 21 0 0 53 c-1 45
-1 53 -2 58 -8 25 -26 38 -59 41 -6 1 -12 1 -12 1 -1 0 -5 -1 -10 -1z m25 -92
c2 -1 6 -3 9 -3 4 -2 4 -2 3 -6 -1 -9 -5 -14 -13 -18 -6 -3 -20 -3 -25 0 -14
6 -11 24 3 28 5 1 17 0 23 -1z"/>
    <path d="M438 961 c-11 -2 -20 -7 -26 -15 l-3 -4 0 8 0 8 -23 0 -24 0 0 -74 0
-75 24 0 23 0 0 49 c0 32 0 51 1 53 1 3 3 6 5 8 4 4 4 4 11 5 6 0 7 0 10 -2 5
-4 7 -8 7 -17 l-1 -7 22 0 21 0 1 3 c0 1 0 9 0 16 0 15 -1 20 -7 29 -7 11 -25
17 -41 15z"/>
    <path d="M569 961 c-15 -2 -29 -9 -39 -20 -16 -15 -22 -32 -22 -56 0 -15 2
-24 8 -36 11 -24 34 -38 60 -38 17 0 30 4 39 14 l6 6 0 -12 c-1 -11 -1 -13 -3
-18 -4 -7 -7 -11 -13 -15 -5 -2 -7 -2 -15 -3 -6 0 -10 0 -14 1 -6 3 -14 10
-18 16 -1 3 -2 5 -3 5 0 0 -9 -4 -20 -9 l-20 -9 2 -5 c8 -17 23 -29 43 -35 7
-2 10 -2 27 -2 17 0 21 0 28 2 20 5 36 18 44 34 9 18 9 22 9 106 l0 71 -23 0
-24 0 0 -7 0 -7 -5 4 c-12 10 -30 15 -47 13z m34 -43 c26 -12 26 -52 1 -65 -5
-2 -7 -2 -15 -2 -8 0 -10 0 -15 2 -11 5 -17 13 -19 25 -4 19 7 38 25 42 5 2
17 0 23 -2z"/>
    <path d="M757 961 c-27 -3 -48 -18 -57 -40 l-2 -5 20 -5 c10 -3 19 -5 19 -5 1
0 2 3 3 5 4 10 13 14 26 14 10 1 16 -2 21 -7 4 -5 6 -9 6 -17 0 -6 0 -6 -2 -6
-14 4 -23 5 -37 5 -16 -1 -23 -2 -33 -7 -25 -13 -31 -52 -9 -73 12 -12 29 -16
50 -13 11 2 18 6 27 15 l7 7 0 -10 0 -10 21 0 21 0 0 51 c0 48 0 52 -2 59 -1
4 -3 10 -5 13 -4 8 -13 17 -22 21 -13 7 -34 10 -52 8z m19 -91 c4 -1 9 -3 12
-4 4 -2 5 -3 5 -5 0 -4 -3 -11 -7 -14 -5 -5 -10 -7 -20 -7 -11 0 -16 2 -19 8
-2 5 -2 8 0 13 3 9 14 12 29 9z"/>
    <path d="M1 649 l0 -23 38 0 38 0 0 -87 0 -88 25 0 25 0 0 88 0 87 38 0 37 0
0 23 0 22 -100 0 -101 0 0 -22z"/>
    <path d="M383 561 l0 -110 24 0 23 0 0 110 0 110 -23 0 -24 0 0 -110z"/>
    <path d="M900 561 l0 -110 24 0 23 0 0 21 0 22 6 6 7 6 19 -27 19 -28 26 0
c14 0 26 0 26 1 0 0 -13 19 -29 42 -16 24 -30 43 -30 44 -1 0 10 13 26 30 15
16 28 29 29 30 1 2 0 2 -27 2 l-28 0 -22 -24 -21 -24 -1 59 0 60 -24 0 -23 0
0 -110z"/>
    <path d="M815 644 l0 -24 25 0 25 0 0 24 0 24 -25 0 -25 0 0 -24z"/>
    <path d="M520 602 c-15 -3 -27 -9 -39 -21 -10 -10 -15 -19 -19 -33 -4 -11 -4
-33 0 -44 4 -14 9 -23 19 -33 12 -13 25 -19 43 -22 10 -2 30 -1 39 1 14 4 28
13 36 23 3 5 10 17 10 18 0 1 -39 16 -40 15 -1 -3 -6 -10 -9 -12 -9 -7 -26 -8
-37 -2 -9 4 -15 12 -17 21 l0 3 49 0 49 0 0 4 c1 7 1 25 0 33 -4 18 -17 34
-33 42 -5 2 -11 5 -14 6 -8 1 -29 2 -37 1z m26 -37 c7 -2 14 -10 14 -15 l0 -3
-27 0 c-15 0 -27 0 -27 1 0 0 1 3 3 5 8 12 22 16 37 12z"/>
    <path d="M197 547 c0 -49 0 -53 2 -60 3 -11 6 -17 13 -24 11 -11 25 -16 45
-15 18 1 30 6 38 17 l4 5 0 -9 0 -10 24 0 23 0 0 75 0 74 -23 0 -24 0 0 -44
c-1 -50 -1 -50 -9 -59 -5 -5 -10 -8 -18 -9 -12 -1 -23 5 -27 16 -1 4 -1 9 -2
50 l0 46 -23 0 -23 0 0 -53z"/>
    <path d="M618 595 c2 -4 54 -138 56 -143 0 -1 7 -1 30 -1 l30 1 29 74 c16 40
29 74 29 74 0 0 -11 0 -25 0 -19 0 -25 0 -25 -1 -1 -1 -9 -25 -19 -53 -10 -29
-19 -52 -19 -52 0 0 -9 24 -19 53 l-19 53 -25 0 -25 0 2 -5z"/>
    <path d="M816 526 l0 -75 24 0 23 0 0 75 0 74 -23 0 -24 0 0 -74z"/>
    <path d="M1068 546 c1 -48 1 -54 2 -59 6 -21 19 -33 40 -38 10 -2 28 -1 37 2
8 3 16 9 20 14 l4 5 0 -9 0 -10 24 0 23 0 0 75 0 74 -23 0 -24 0 0 -44 c-1
-42 -1 -44 -3 -49 -3 -7 -8 -13 -14 -16 -4 -2 -6 -2 -13 -2 -12 0 -18 3 -23
14 -2 4 -3 5 -3 51 l0 46 -24 0 -23 0 0 -54z"/>
    <path d="M1 203 l0 -111 25 0 25 0 0 43 0 43 54 0 54 0 0 23 0 22 -54 0 -54 0
0 23 0 22 59 0 59 0 0 23 0 22 -84 0 -84 0 0 -110z"/>
    <path d="M664 268 l0 -44 -6 5 c-16 15 -40 20 -64 12 -31 -11 -49 -41 -48 -79
2 -31 16 -54 41 -66 25 -11 56 -8 73 8 l6 5 0 -8 0 -9 23 0 22 0 0 111 0 110
-23 0 -24 0 0 -45z m-27 -63 c8 -2 14 -5 19 -11 6 -6 9 -14 10 -23 1 -18 -7
-33 -21 -40 -6 -2 -8 -2 -15 -2 -6 0 -11 0 -14 1 -16 6 -24 20 -23 40 1 7 1
10 4 15 7 16 23 24 40 20z"/>
    <path d="M251 244 c-15 -2 -28 -7 -40 -16 -26 -21 -35 -63 -20 -95 10 -21 27
-35 50 -41 11 -3 32 -3 44 0 27 7 46 26 54 54 3 11 3 31 0 43 -8 28 -29 48
-57 54 -9 1 -23 2 -31 1z m26 -45 c10 -4 17 -13 19 -25 2 -13 -2 -26 -11 -34
-6 -6 -13 -8 -23 -8 -14 0 -25 7 -30 19 -3 7 -3 25 0 32 7 17 28 24 45 16z"/>
    <path d="M453 244 c-13 -2 -21 -6 -30 -14 l-5 -5 0 8 0 9 -23 0 -24 0 0 -75 0
-75 24 0 23 0 0 46 c0 50 0 51 6 59 7 11 25 14 35 6 3 -1 6 -5 7 -8 l4 -5 0
-49 0 -49 24 0 23 0 0 53 c0 57 0 61 -6 73 -5 11 -15 19 -28 24 -9 2 -23 3
-30 2z"/>
  </g>
  <g fill="#FF6631">
    <path d="M1 741 l0 -23 1217 0 1217 0 0 23 0 23 -894 0 -894 0 -2 -2 c-3 -4
-16 -11 -24 -14 -13 -4 -25 -5 -40 -5 -20 1 -36 7 -48 17 l-5 4 -263 0 -264 0
0 -23z"/>
  </g>
  <g fill="#B8AAE8">
    <path d="M1 382 l0 -23 1217 0 1217 0 0 23 0 23 -1217 0 -1217 0 0 -23z"/>
  </g>
  <g fill="#DBDEDD">
    <path d="M473 954 c0 0 1 -2 3 -4 l4 -2 -3 3 c-3 3 -4 3 -4 3z"/>
    <path d="M310 944 c2 -2 4 -4 4 -4 0 0 -1 2 -3 4 -3 2 -5 4 -5 4 0 0 1 -2 4
-4z"/>
    <path d="M531 945 l-1 -2 2 1 c2 2 2 3 2 3 -1 0 -2 -1 -3 -2z"/>
    <path d="M715 945 l-1 -2 2 1 c2 2 2 3 2 3 -1 0 -2 -1 -3 -2z"/>
    <path d="M710 940 l-1 -2 2 1 c2 2 2 3 2 3 -1 0 -2 -1 -3 -2z"/>
    <path d="M525 938 c-1 -1 -1 -1 0 0 1 1 2 1 2 2 0 0 -1 0 -2 -2z"/>
    <path d="M415 919 c-1 -1 -1 -1 0 0 1 1 2 1 2 2 0 0 -1 0 -2 -2z"/>
    <path d="M612 911 c1 -2 3 -3 3 -3 0 0 -1 1 -2 3 -1 1 -3 2 -3 2 0 0 1 -1 2
-2z"/>
    <path d="M709 886 l-1 -2 2 1 c2 2 2 3 2 3 -1 0 -2 -1 -3 -2z"/>
    <path d="M749 865 l-1 -2 2 1 c2 2 2 3 2 3 -1 0 -2 -1 -3 -2z"/>
    <path d="M785 847 l-1 -2 2 1 c2 2 2 3 2 3 -1 0 -2 -1 -3 -2z"/>
    <path d="M750 845 c0 -1 2 -2 2 -2 0 0 -1 1 -1 2 -1 1 -3 2 -3 2 0 0 1 -1 2
-2z"/>
    <path d="M523 835 c0 -1 1 -1 2 -2 1 -1 1 -1 0 0 -1 2 -2 2 -2 2z"/>
    <path d="M531 827 c0 -1 1 -1 2 -2 1 -1 1 -1 0 0 -1 2 -2 2 -2 2z"/>
    <path d="M274 820 l-3 -4 4 3 c2 3 4 5 4 5 0 0 -1 0 -5 -4z"/>
    <path d="M194 823 c0 0 1 -2 3 -4 l4 -2 -3 3 c-3 3 -4 3 -4 3z"/>
    <path d="M563 794 c0 -1 1 -1 2 -2 1 -1 1 -1 0 0 -1 2 -2 2 -2 2z"/>
    <path d="M1044 596 l-4 -5 5 4 c2 3 4 5 4 5 0 0 -3 -2 -5 -4z"/>
    <path d="M985 594 l-2 -2 2 2 c3 2 3 3 3 3 -1 0 -2 -1 -3 -3z"/>
    <path d="M480 582 l-3 -3 3 3 c2 2 4 4 4 4 0 0 -1 0 -4 -4z"/>
    <path d="M975 583 l-2 -2 2 2 c3 2 3 3 3 3 -1 0 -2 -1 -3 -3z"/>
    <path d="M1027 578 l-3 -4 4 3 c4 4 4 5 4 5 0 0 -2 -2 -5 -4z"/>
    <path d="M965 572 l-2 -2 2 2 c2 1 3 2 3 3 0 0 -1 0 -3 -3z"/>
    <path d="M955 561 l-2 -2 2 2 c2 1 3 2 3 3 0 0 -1 0 -3 -3z"/>
    <path d="M1010 560 l-3 -4 4 3 c4 4 4 5 4 5 0 0 -2 -2 -5 -4z"/>
    <path d="M512 557 l-1 -2 2 1 c2 2 2 3 2 3 -1 0 -2 -1 -3 -2z"/>
    <path d="M994 543 l-3 -4 4 3 c4 4 4 5 4 5 0 0 -2 -2 -5 -4z"/>
    <path d="M515 498 c0 -1 1 -1 2 -2 1 -1 1 -1 0 0 -1 2 -2 2 -2 2z"/>
    <path d="M477 473 c0 0 1 -2 3 -4 l4 -2 -3 3 c-3 3 -4 3 -4 3z"/>
    <path d="M594 468 l-3 -4 4 3 c4 4 4 5 4 5 0 0 -2 -2 -5 -4z"/>
    <path d="M1166 463 c-1 -1 -1 -1 0 0 2 1 2 2 2 2 -1 0 -1 -1 -2 -2z"/>
    <path d="M1161 458 c-1 -1 -1 -1 0 0 2 1 2 2 2 2 -1 0 -1 -1 -2 -2z"/>
    <path d="M1051 452 c0 -1 0 -2 1 -2 0 1 0 2 -1 2 -1 1 -1 1 0 0z"/>
    <path d="M2435 382 c0 -13 1 -18 1 -12 0 7 0 17 0 24 0 6 -1 1 -1 -12z"/>
    <path d="M421 230 l-1 -2 2 1 c1 1 2 2 2 3 0 0 -1 0 -3 -2z"/>
    <path d="M204 223 c-2 -3 -4 -5 -4 -5 0 0 3 2 5 5 2 2 4 4 4 4 0 0 -3 -2 -5
-4z"/>
    <path d="M426 200 l-1 -2 2 1 c1 1 2 2 2 3 0 0 -1 0 -3 -2z"/>
    <path d="M603 195 l-2 -3 3 2 c2 2 3 4 3 4 0 0 -1 0 -4 -3z"/>
    <path d="M601 142 c0 0 1 -2 3 -4 l4 -2 -3 3 c-3 3 -4 3 -4 3z"/>
    <path d="M654 139 l-1 -2 2 1 c1 1 2 2 2 3 0 0 -1 0 -3 -2z"/>
    <path d="M205 111 c2 -3 5 -5 5 -5 0 0 -2 2 -4 5 -3 3 -6 5 -6 5 0 0 2 -2 5
-5z"/>
    <path d="M566 110 c2 -3 5 -5 5 -5 0 0 0 1 -5 5 l-4 5 4 -5z"/>
    <path d="M315 106 c-1 -1 -1 -1 0 0 1 1 2 1 2 2 0 0 -1 0 -2 -2z"/>
    <path d="M1 24 l0 -24 1217 0 1218 1 0 23 0 23 -1218 0 -1217 0 0 -23z"/>
  </g>
  </g>
</svg>
